<svg width="3650" height="1000" viewBox="0 0 3650 1000" fill="none" xmlns="http://www.w3.org/2000/svg">
<path d="M3110.59 50.1067C3110.59 50.1067 3079.82 180.578 3128.59 257.871C3128.59 257.871 3228.74 200.014 3239.53 165.641C3247.99 138.917 3223.79 107.874 3154.05 92.9371C3154.05 92.9371 3196.07 71.162 3256.81 107.154C3256.81 107.154 3231.35 47.1373 3110.59 50.1067Z" fill="#E30613"/>
<path d="M3568.77 50.1067C3568.77 50.1067 3599.55 180.578 3550.78 257.871C3550.78 257.871 3450.63 200.014 3439.83 165.641C3431.37 138.917 3455.58 107.874 3525.31 92.9371C3525.31 92.9371 3483.29 71.162 3422.55 107.154C3422.46 107.154 3448.02 47.1373 3568.77 50.1067Z" fill="#E30613"/>
<path d="M3604.13 634.439C3604.13 634.439 3604.13 433.423 3603.5 351.721C3602.51 217.2 3484.91 106.884 3341.75 105.445C3195.44 104.005 3077.3 212.521 3075.41 350.371C3074.87 387.713 3075.32 634.439 3075.32 634.439H3211.55C3211.55 634.439 3211.19 598.267 3211.1 503.338C3203 499.019 3194.09 494.25 3183.84 488.851C3085.31 436.932 3094.94 387.173 3101.32 351.631C3106.54 322.387 3150.54 246.624 3240.79 261.65C3244.57 262.28 3247.9 263.18 3251.23 264.08C3273.46 244.014 3303.6 232.317 3338.78 232.137C3374.14 232.047 3404.83 243.834 3427.32 264.17C3430.74 263.18 3434.25 262.28 3438.12 261.65C3528.37 246.624 3572.37 322.387 3577.59 351.631C3583.98 387.173 3593.61 436.932 3495.08 488.851C3484.91 494.25 3476 498.929 3467.9 503.338C3467.99 597.367 3467.9 634.439 3467.9 634.439H3604.13Z" fill="#E30613"/>
<path fill-rule="evenodd" clip-rule="evenodd" d="M3427.5 300.612C3507.86 287.205 3547 354.69 3551.68 380.694L3551.76 381.182C3557.52 412.821 3565.53 456.875 3478.25 502.888C3409.09 539.315 3397.87 547.531 3390.44 552.978C3389.18 553.896 3388.04 554.734 3386.74 555.616C3376.39 562.635 3363.71 571.003 3339.59 571.003C3315.48 571.003 3302.7 562.635 3292.44 555.616C3291.1 554.709 3289.91 553.847 3288.61 552.899C3281.11 547.45 3269.68 539.138 3200.93 502.888C3113.81 456.958 3121.72 412.892 3127.39 381.352L3127.51 380.694C3132.19 354.69 3171.33 287.295 3251.68 300.612C3321.6 312.219 3312.24 381.684 3293.79 402.11C3290.93 405.268 3287.64 408.286 3284.19 411.455C3269.92 424.535 3252.86 440.183 3251.77 478.863C3250.42 527.002 3321.24 527.632 3321.24 527.632L3322.86 527.722C3302.79 523.043 3288.21 509.906 3288.21 494.25C3288.21 474.724 3310.8 458.887 3338.6 458.887C3366.41 458.887 3388.99 474.724 3388.99 494.25C3388.99 509.996 3374.23 523.223 3353.99 527.812L3358.04 527.632C3358.04 527.632 3428.85 526.912 3427.5 478.863C3426.42 440.301 3409.4 424.689 3395.14 411.609C3391.63 408.39 3388.29 405.326 3385.39 402.11C3367.04 381.684 3357.68 312.219 3427.5 300.612ZM3442.44 369.807C3442.44 383.374 3431.44 394.371 3417.87 394.371C3404.31 394.371 3393.31 383.374 3393.31 369.807C3393.31 356.24 3404.31 345.242 3417.87 345.242C3431.44 345.242 3442.44 356.24 3442.44 369.807ZM3286.05 369.807C3286.05 383.374 3275.06 394.372 3261.49 394.372C3247.92 394.372 3236.92 383.374 3236.92 369.807C3236.92 356.241 3247.92 345.242 3261.49 345.242C3275.06 345.242 3286.05 356.241 3286.05 369.807Z" fill="black"/>
<path d="M3211.82 650.635H3075.23V699.225H3211.82V650.635Z" fill="black"/>
<path d="M3604.13 650.635H3467.54V699.225H3604.13V650.635Z" fill="black"/>
<path d="M1878.4 849.312H1864.72V947.031H1878.4V849.312Z" fill="#E30613"/>
<path d="M1986.83 847.602C1956.95 847.602 1934.55 869.287 1934.55 898.351C1934.55 927.235 1957.04 948.65 1986.92 948.65C2016.79 948.65 2039.29 927.415 2039.29 898.171C2039.38 869.287 2016.88 847.602 1986.83 847.602ZM1987.01 935.963C1964.78 935.963 1948.23 919.856 1948.23 898.171C1948.23 876.396 1964.87 860.109 1986.92 860.109C2009.23 860.109 2025.7 876.216 2025.7 897.991C2025.7 919.946 2009.05 935.963 1987.01 935.963Z" fill="#E30613"/>
<path d="M2082.12 861.909H2117.12V947.031H2130.8V861.909H2165.89V849.312H2082.12V861.909Z" fill="#E30613"/>
<path d="M2387.33 919.587C2391.47 914.998 2396.42 909.149 2402.27 901.95C2408.03 894.842 2411.35 890.613 2412.25 889.533L2402.09 883.774C2401.73 884.314 2399.12 887.914 2394.44 894.482C2389.76 901.141 2384.63 907.709 2378.96 914.278H2378.78C2377.16 913.198 2374.1 911.128 2369.6 908.069C2365.1 905.01 2361.15 902.31 2357.55 899.791V899.611C2364.83 894.212 2370.14 889.173 2373.56 884.404C2376.98 879.725 2378.6 874.776 2378.6 869.648C2378.6 862.359 2375.54 856.51 2369.51 852.101C2363.49 847.782 2355.57 845.533 2345.85 845.533C2337.3 845.533 2329.56 847.872 2322.81 852.461C2315.98 857.05 2312.56 862.899 2312.56 869.827C2312.56 873.876 2313.64 877.566 2315.71 880.895C2317.87 884.224 2321.01 887.374 2325.15 890.343V890.523C2319.57 894.212 2314.9 898.621 2311.03 903.66C2307.16 908.699 2305.27 914.008 2305.27 919.587C2305.27 927.775 2308.6 934.253 2315.35 939.112C2322.09 943.971 2330.55 946.401 2340.72 946.401C2347.92 946.401 2354.49 944.961 2360.61 942.082C2366.63 939.202 2373.29 934.343 2380.31 927.505H2380.49L2407.85 945.591L2414.95 937.313L2387.24 919.587V919.587H2387.33ZM2331.63 859.03C2335.5 856.241 2340.18 854.801 2345.85 854.801C2351.97 854.801 2356.83 856.24 2360.34 859.21C2363.84 862.179 2365.64 866.048 2365.64 870.907C2365.64 874.866 2364.48 878.736 2362.23 882.425C2359.98 886.114 2355.93 890.163 2349.99 894.392H2349.81C2341.8 889.083 2335.77 884.584 2331.81 880.895C2327.85 877.206 2325.78 873.517 2325.78 869.827C2325.96 865.418 2327.85 861.819 2331.63 859.03ZM2371.85 922.466C2367.53 926.965 2362.86 930.474 2358 933.174C2353.14 935.783 2347.47 937.133 2341.17 937.133C2335.05 937.133 2329.83 935.513 2325.51 932.364C2321.19 929.215 2319.03 924.985 2319.03 919.587C2319.03 915.627 2319.93 911.938 2321.64 908.519C2323.35 905.01 2327.13 900.871 2333.07 896.012H2333.25C2340.72 901.141 2347.83 906.09 2354.58 910.679C2361.33 915.268 2367.17 919.137 2371.85 922.376V922.466V922.466Z" fill="#E30613"/>
<path d="M2569.72 890.163C2550.19 888.454 2542.73 884.944 2542.73 875.406C2542.73 871.537 2544.62 867.938 2548.3 864.879C2551.99 861.819 2557.84 860.2 2565.85 860.2C2577.55 860.2 2587.27 864.069 2596.26 873.067L2605.71 862.719C2595.63 853.181 2583.13 847.422 2566.48 847.422C2545.25 847.422 2528.87 858.85 2528.87 876.306C2528.87 892.952 2540.84 900.601 2567.56 903.39C2586.82 905.1 2594.37 909.149 2594.37 918.687C2594.37 924.176 2591.95 928.225 2587.18 931.194C2582.41 933.984 2576.56 935.423 2569.63 935.603C2555.77 935.603 2543.18 929.215 2535.08 920.037L2525.81 930.294C2537.15 943.072 2553.61 948.65 2569.18 948.65C2589.7 948.65 2608.41 937.313 2608.41 918.057C2608.41 900.871 2596.71 892.773 2569.72 890.163Z" fill="#E30613"/>
<path d="M2711.8 847.602C2681.93 847.602 2659.52 869.287 2659.52 898.351C2659.52 927.235 2682.02 948.56 2711.89 948.65C2741.76 948.65 2764.26 927.415 2764.26 898.171C2764.35 869.287 2741.85 847.602 2711.8 847.602ZM2711.89 935.963C2689.66 935.963 2673.11 919.856 2673.11 898.171C2673.11 876.396 2689.75 860.109 2711.8 860.109C2734.11 860.109 2750.58 876.216 2750.58 897.991C2750.58 919.946 2734.02 935.963 2711.89 935.963Z" fill="#E30613"/>
<path d="M2820.41 947.031H2834.08V903.93H2885.37V891.423H2834.08V861.909H2894.82V849.312H2820.41V947.031Z" fill="#E30613"/>
<path d="M2937.65 861.909H2972.56V947.031H2986.24V861.909H3021.33V849.312H2937.65V861.909Z" fill="#E30613"/>
<path d="M3153.87 917.517L3130.48 864.969H3129.58L3104.56 917.877L3078.92 849.312H3064.7L3102.13 947.661H3103.39L3129.85 890.523L3154.95 947.661H3156.03L3193.91 849.312H3179.7L3153.87 917.517Z" fill="#E30613"/>
<path d="M3278.32 848.682L3225.77 946.761V947.031H3240.7L3250.24 928.675H3306.03L3315.21 947.031H3330.05V946.761L3279.4 848.682H3278.32ZM3256.81 915.627L3278.77 873.067L3299.73 915.627H3256.81Z" fill="#E30613"/>
<path d="M3465.83 883.055C3465.83 864.879 3450.72 849.312 3426.24 849.312H3383.14V947.031H3396.82V916.438H3427.23L3452.88 947.031H3470.33L3442.8 914.098C3457.2 909.149 3465.83 896.552 3465.83 883.055ZM3426.33 903.93H3396.82V861.82H3425.25C3433.26 861.82 3439.74 863.799 3444.69 867.938C3449.64 872.077 3452.16 877.116 3452.16 883.235C3452.16 889.084 3449.91 894.032 3445.23 897.992C3440.64 901.951 3434.34 903.93 3426.33 903.93Z" fill="#E30613"/>
<path d="M3602.06 861.909V849.312H3525.4V947.031H3602.06V934.434H3538.99V903.39H3602.06V890.973H3538.99V861.909H3602.06Z" fill="#E30613"/>
<path d="M1190.23 367.737C1188.79 513.955 1297.31 632.19 1435.16 634.079C1472.5 634.619 1611.7 634.169 1611.7 634.169V497.939C1611.7 497.939 1523.43 498.749 1443.17 498.119C1368.66 497.489 1317.19 444.94 1316.92 370.706C1316.65 296.653 1368.48 242.754 1442 241.945C1505.61 241.225 1611.7 241.585 1611.7 241.585V105.534C1611.7 105.534 1518.12 105.534 1436.51 106.074C1302.08 106.974 1191.67 224.579 1190.23 367.737Z" fill="black"/>
<path d="M1788.24 105.354H1654.71V884.764H1788.24V105.354Z" fill="black"/>
<path d="M2998.75 173.289H2862.52C2862.52 173.289 2863.33 300.972 2862.7 381.234C2862.07 455.738 2809.52 507.207 2735.28 507.477C2661.23 507.747 2607.33 455.918 2606.52 382.404C2605.8 318.788 2606.16 173.289 2606.16 173.289H2470.11C2470.11 173.289 2470.11 306.191 2470.74 387.893C2471.73 522.413 2589.34 632.729 2732.49 634.169C2878.8 635.609 2996.95 527.092 2998.84 389.242C2999.2 351.811 2998.75 173.289 2998.75 173.289Z" fill="black"/>
<path d="M2393.45 173.289H2257.22C2257.22 173.289 2258.03 300.972 2257.4 381.234C2256.77 455.738 2204.22 507.207 2129.99 507.477C2055.93 507.747 2002.03 455.918 2001.22 382.404C2000.5 318.788 2000.86 173.289 2000.86 173.289H1864.81C1864.81 173.289 1864.81 306.191 1865.44 387.893C1866.43 522.413 1984.04 632.729 2127.2 634.169C2273.5 635.609 2391.65 527.092 2393.54 389.242C2393.9 351.811 2393.45 173.289 2393.45 173.289Z" fill="black"/>
<path d="M2606.52 106.434H2469.93V155.023H2606.52V106.434Z" fill="#E30613"/>
<path d="M2998.84 106.434H2862.25V155.023H2998.84V106.434Z" fill="#E30613"/>
<path d="M2001.31 106.434H1864.72V155.023H2001.31V106.434Z" fill="#E30613"/>
<path d="M2393.54 106.434H2256.95V155.023H2393.54V106.434Z" fill="#E30613"/>
<path d="M1116.54 105.354H979.947V153.944H1116.54V105.354Z" fill="#E30613"/>
<path d="M981.027 498.209C902.744 498.389 811.234 498.389 769.483 498.029C694.979 497.399 643.511 444.85 643.241 370.617C642.971 296.563 694.799 242.664 768.313 241.855C831.93 241.135 938.016 241.495 938.016 241.495V105.444C938.016 105.444 844.437 105.444 762.825 105.984C628.304 106.974 517.988 224.578 516.548 367.737C515.109 513.955 623.625 632.189 761.475 634.079C798.817 634.619 1114.56 634.169 1114.56 634.169V497.849V172.21H981.027V498.209V498.209Z" fill="black"/>
<path d="M185.78 137.477V105.354H50V634.259H185.78V408.408C185.96 404.899 185.96 401.12 185.78 396.621V365.218C187.58 329.855 195.408 307.72 202.877 294.493C224.742 262.28 261.184 242.124 305.814 241.675C369.43 240.955 372.76 241.315 372.76 241.315V105.264C371.05 105.264 359.982 105.444 300.325 105.804C258.934 106.254 219.973 117.772 185.78 137.477Z" fill="black"/>
<path d="M1789.77 901.411H1653.18V950H1789.77V901.411Z" fill="#E30613"/>
<path d="M395.935 105.424L395.935 242.015L444.525 242.015L444.525 105.425L395.935 105.424Z" fill="#E30613"/>
</svg>
